<?xml version="1.0" encoding="UTF-8" standalone="no"?>
<!DOCTYPE svg PUBLIC "-//W3C//DTD SVG 1.1//EN"
 "http://www.w3.org/Graphics/SVG/1.1/DTD/svg11.dtd">
<!-- Generated by graphviz version 2.47.0 (20210316.0004)
 -->
<!-- Title: dependencies Pages: 1 -->
<svg width="3644pt" height="284pt"
 viewBox="0.00 0.00 3644.00 284.00" xmlns="http://www.w3.org/2000/svg" xmlns:xlink="http://www.w3.org/1999/xlink">
<g id="graph0" class="graph" transform="scale(1 1) rotate(0) translate(4 280)">
<title>dependencies</title>
<polygon fill="white" stroke="transparent" points="-4,4 -4,-280 3640,-280 3640,4 -4,4"/>
<text text-anchor="start" x="1797.01" y="-42.4" font-family="Times-12" font-weight="bold" font-size="14.00">Legend</text>
<polygon fill="#ffffb3" stroke="transparent" points="1584,-10 1584,-30 1604,-30 1604,-10 1584,-10"/>
<text text-anchor="start" x="1607.63" y="-15.4" font-family="Times-12" font-size="14.00"> &#160;Declarations</text>
<polygon fill="#8dd3c7" stroke="transparent" points="1697,-10 1697,-30 1717,-30 1717,-10 1697,-10"/>
<text text-anchor="start" x="1720.73" y="-15.4" font-family="Times-12" font-size="14.00"> &#160;Module</text>
<polygon fill="#80b1d3" stroke="transparent" points="1783,-10 1783,-30 1803,-30 1803,-10 1783,-10"/>
<text text-anchor="start" x="1806.78" y="-15.4" font-family="Times-12" font-size="14.00"> &#160;Bootstrap</text>
<polygon fill="#fdb462" stroke="transparent" points="1880,-10 1880,-30 1900,-30 1900,-10 1880,-10"/>
<text text-anchor="start" x="1903.67" y="-15.4" font-family="Times-12" font-size="14.00"> &#160;Providers</text>
<polygon fill="#fb8072" stroke="transparent" points="1976,-10 1976,-30 1996,-30 1996,-10 1976,-10"/>
<text text-anchor="start" x="1999.73" y="-15.4" font-family="Times-12" font-size="14.00"> &#160;Exports</text>
<g id="clust1" class="cluster">
<title>cluster_AppModule</title>
<polygon fill="none" stroke="black" stroke-dasharray="1,5" points="8,-70 8,-268 3628,-268 3628,-70 8,-70"/>
</g>
<g id="clust2" class="cluster">
<title>cluster_AppModule_declarations</title>
<polygon fill="none" stroke="black" points="334,-78 334,-130 3620,-130 3620,-78 334,-78"/>
</g>
<g id="clust24" class="cluster">
<title>cluster_AppModule_imports</title>
<polygon fill="none" stroke="black" points="182,-78 182,-130 326,-130 326,-78 182,-78"/>
</g>
<g id="clust26" class="cluster">
<title>cluster_AppModule_bootstrap</title>
<polygon fill="none" stroke="black" points="1690,-208 1690,-260 1814,-260 1814,-208 1690,-208"/>
</g>
<g id="clust27" class="cluster">
<title>cluster_AppModule_providers</title>
<polygon fill="none" stroke="black" points="16,-78 16,-130 174,-130 174,-78 16,-78"/>
</g>
<!-- ActivosFromComponent -->
<g id="node1" class="node">
<title>ActivosFromComponent</title>
<polygon fill="#ffffb3" stroke="black" points="3611.71,-122 3456.29,-122 3456.29,-86 3611.71,-86 3611.71,-122"/>
<text text-anchor="middle" x="3534" y="-99.8" font-family="Times,serif" font-size="14.00">ActivosFromComponent</text>
</g>
<!-- AppModule -->
<g id="node22" class="node">
<title>AppModule</title>
<polygon fill="#8dd3c7" stroke="black" points="1793.66,-187 1790.66,-191 1769.66,-191 1766.66,-187 1710.34,-187 1710.34,-151 1793.66,-151 1793.66,-187"/>
<text text-anchor="middle" x="1752" y="-164.8" font-family="Times,serif" font-size="14.00">AppModule</text>
</g>
<!-- ActivosFromComponent&#45;&gt;AppModule -->
<g id="edge1" class="edge">
<title>ActivosFromComponent&#45;&gt;AppModule</title>
<path fill="none" stroke="black" d="M3534,-122.15C3534,-145.76 3534,-184 3534,-184 3534,-184 1803.86,-184 1803.86,-184"/>
<polygon fill="black" stroke="black" points="1803.86,-180.5 1793.86,-184 1803.86,-187.5 1803.86,-180.5"/>
</g>
<!-- AppComponent -->
<g id="node2" class="node">
<title>AppComponent</title>
<polygon fill="#ffffb3" stroke="black" points="3438.94,-122 3333.06,-122 3333.06,-86 3438.94,-86 3438.94,-122"/>
<text text-anchor="middle" x="3386" y="-99.8" font-family="Times,serif" font-size="14.00">AppComponent</text>
</g>
<!-- AppComponent&#45;&gt;AppModule -->
<g id="edge2" class="edge">
<title>AppComponent&#45;&gt;AppModule</title>
<path fill="none" stroke="black" d="M3386,-122.25C3386,-145.02 3386,-181 3386,-181 3386,-181 1804.03,-181 1804.03,-181"/>
<polygon fill="black" stroke="black" points="1804.03,-177.5 1794.03,-181 1804.03,-184.5 1804.03,-177.5"/>
</g>
<!-- BodyComponent -->
<g id="node3" class="node">
<title>BodyComponent</title>
<polygon fill="#ffffb3" stroke="black" points="3314.67,-122 3203.33,-122 3203.33,-86 3314.67,-86 3314.67,-122"/>
<text text-anchor="middle" x="3259" y="-99.8" font-family="Times,serif" font-size="14.00">BodyComponent</text>
</g>
<!-- BodyComponent&#45;&gt;AppModule -->
<g id="edge3" class="edge">
<title>BodyComponent&#45;&gt;AppModule</title>
<path fill="none" stroke="black" d="M3259,-122.29C3259,-144.21 3259,-178 3259,-178 3259,-178 1803.88,-178 1803.88,-178"/>
<polygon fill="black" stroke="black" points="1803.88,-174.5 1793.88,-178 1803.88,-181.5 1803.88,-174.5"/>
</g>
<!-- BorrarOrdenDialogComponent -->
<g id="node4" class="node">
<title>BorrarOrdenDialogComponent</title>
<polygon fill="#ffffb3" stroke="black" points="3185.45,-122 2994.55,-122 2994.55,-86 3185.45,-86 3185.45,-122"/>
<text text-anchor="middle" x="3090" y="-99.8" font-family="Times,serif" font-size="14.00">BorrarOrdenDialogComponent</text>
</g>
<!-- BorrarOrdenDialogComponent&#45;&gt;AppModule -->
<g id="edge4" class="edge">
<title>BorrarOrdenDialogComponent&#45;&gt;AppModule</title>
<path fill="none" stroke="black" d="M3090,-122.28C3090,-143.32 3090,-175 3090,-175 3090,-175 1803.88,-175 1803.88,-175"/>
<polygon fill="black" stroke="black" points="1803.88,-171.5 1793.88,-175 1803.88,-178.5 1803.88,-171.5"/>
</g>
<!-- CameraComponent -->
<g id="node5" class="node">
<title>CameraComponent</title>
<polygon fill="#ffffb3" stroke="black" points="2976.36,-122 2851.64,-122 2851.64,-86 2976.36,-86 2976.36,-122"/>
<text text-anchor="middle" x="2914" y="-99.8" font-family="Times,serif" font-size="14.00">CameraComponent</text>
</g>
<!-- CameraComponent&#45;&gt;AppModule -->
<g id="edge5" class="edge">
<title>CameraComponent&#45;&gt;AppModule</title>
<path fill="none" stroke="black" d="M2914,-122.22C2914,-142.37 2914,-172 2914,-172 2914,-172 1803.7,-172 1803.7,-172"/>
<polygon fill="black" stroke="black" points="1803.7,-168.5 1793.7,-172 1803.7,-175.5 1803.7,-168.5"/>
</g>
<!-- EdificioFormComponent -->
<g id="node6" class="node">
<title>EdificioFormComponent</title>
<polygon fill="#ffffb3" stroke="black" points="2833.27,-122 2676.73,-122 2676.73,-86 2833.27,-86 2833.27,-122"/>
<text text-anchor="middle" x="2755" y="-99.8" font-family="Times,serif" font-size="14.00">EdificioFormComponent</text>
</g>
<!-- EdificioFormComponent&#45;&gt;AppModule -->
<g id="edge6" class="edge">
<title>EdificioFormComponent&#45;&gt;AppModule</title>
<path fill="none" stroke="black" d="M2755,-122.11C2755,-141.34 2755,-169 2755,-169 2755,-169 1803.82,-169 1803.82,-169"/>
<polygon fill="black" stroke="black" points="1803.82,-165.5 1793.82,-169 1803.82,-172.5 1803.82,-165.5"/>
</g>
<!-- Err404Component -->
<g id="node7" class="node">
<title>Err404Component</title>
<polygon fill="#ffffb3" stroke="black" points="2659.21,-122 2538.79,-122 2538.79,-86 2659.21,-86 2659.21,-122"/>
<text text-anchor="middle" x="2599" y="-99.8" font-family="Times,serif" font-size="14.00">Err404Component</text>
</g>
<!-- Err404Component&#45;&gt;AppModule -->
<g id="edge7" class="edge">
<title>Err404Component&#45;&gt;AppModule</title>
<path fill="none" stroke="black" d="M2599,-122.27C2599,-140.56 2599,-166 2599,-166 2599,-166 1803.71,-166 1803.71,-166"/>
<polygon fill="black" stroke="black" points="1803.71,-162.5 1793.71,-166 1803.71,-169.5 1803.71,-162.5"/>
</g>
<!-- FooterComponent -->
<g id="node8" class="node">
<title>FooterComponent</title>
<polygon fill="#ffffb3" stroke="black" points="2520.88,-122 2403.12,-122 2403.12,-86 2520.88,-86 2520.88,-122"/>
<text text-anchor="middle" x="2462" y="-99.8" font-family="Times,serif" font-size="14.00">FooterComponent</text>
</g>
<!-- FooterComponent&#45;&gt;AppModule -->
<g id="edge8" class="edge">
<title>FooterComponent&#45;&gt;AppModule</title>
<path fill="none" stroke="black" d="M2462,-122.02C2462,-139.37 2462,-163 2462,-163 2462,-163 1803.76,-163 1803.76,-163"/>
<polygon fill="black" stroke="black" points="1803.76,-159.5 1793.76,-163 1803.76,-166.5 1803.76,-159.5"/>
</g>
<!-- HeaderComponent -->
<g id="node9" class="node">
<title>HeaderComponent</title>
<polygon fill="#ffffb3" stroke="black" points="2384.74,-122 2263.26,-122 2263.26,-86 2384.74,-86 2384.74,-122"/>
<text text-anchor="middle" x="2324" y="-99.8" font-family="Times,serif" font-size="14.00">HeaderComponent</text>
</g>
<!-- HeaderComponent&#45;&gt;AppModule -->
<g id="edge9" class="edge">
<title>HeaderComponent&#45;&gt;AppModule</title>
<path fill="none" stroke="black" d="M2324,-122.03C2324,-138.4 2324,-160 2324,-160 2324,-160 1804.06,-160 1804.06,-160"/>
<polygon fill="black" stroke="black" points="1804.06,-156.5 1794.06,-160 1804.06,-163.5 1804.06,-156.5"/>
</g>
<!-- LandingBodyComponent -->
<g id="node10" class="node">
<title>LandingBodyComponent</title>
<polygon fill="#ffffb3" stroke="black" points="2245.33,-122 2086.67,-122 2086.67,-86 2245.33,-86 2245.33,-122"/>
<text text-anchor="middle" x="2166" y="-99.8" font-family="Times,serif" font-size="14.00">LandingBodyComponent</text>
</g>
<!-- LandingBodyComponent&#45;&gt;AppModule -->
<g id="edge10" class="edge">
<title>LandingBodyComponent&#45;&gt;AppModule</title>
<path fill="none" stroke="black" d="M2166,-122.24C2166,-137.57 2166,-157 2166,-157 2166,-157 1803.97,-157 1803.97,-157"/>
<polygon fill="black" stroke="black" points="1803.97,-153.5 1793.97,-157 1803.97,-160.5 1803.97,-153.5"/>
</g>
<!-- OrdenDetalleDialogComponent -->
<g id="node11" class="node">
<title>OrdenDetalleDialogComponent</title>
<polygon fill="#ffffb3" stroke="black" points="2068.34,-122 1873.66,-122 1873.66,-86 2068.34,-86 2068.34,-122"/>
<text text-anchor="middle" x="1971" y="-99.8" font-family="Times,serif" font-size="14.00">OrdenDetalleDialogComponent</text>
</g>
<!-- OrdenDetalleDialogComponent&#45;&gt;AppModule -->
<g id="edge11" class="edge">
<title>OrdenDetalleDialogComponent&#45;&gt;AppModule</title>
<path fill="none" stroke="black" d="M1971,-122.05C1971,-136.37 1971,-154 1971,-154 1971,-154 1803.71,-154 1803.71,-154"/>
<polygon fill="black" stroke="black" points="1803.71,-150.5 1793.71,-154 1803.71,-157.5 1803.71,-150.5"/>
</g>
<!-- OrdenGeneradaDialogComponent -->
<g id="node12" class="node">
<title>OrdenGeneradaDialogComponent</title>
<polygon fill="#ffffb3" stroke="black" points="1856.04,-122 1647.96,-122 1647.96,-86 1856.04,-86 1856.04,-122"/>
<text text-anchor="middle" x="1752" y="-99.8" font-family="Times,serif" font-size="14.00">OrdenGeneradaDialogComponent</text>
</g>
<!-- OrdenGeneradaDialogComponent&#45;&gt;AppModule -->
<g id="edge12" class="edge">
<title>OrdenGeneradaDialogComponent&#45;&gt;AppModule</title>
<path fill="none" stroke="black" d="M1752,-122.11C1752,-122.11 1752,-140.99 1752,-140.99"/>
<polygon fill="black" stroke="black" points="1748.5,-140.99 1752,-150.99 1755.5,-140.99 1748.5,-140.99"/>
</g>
<!-- OrdenTrabajoComponent -->
<g id="node13" class="node">
<title>OrdenTrabajoComponent</title>
<polygon fill="#ffffb3" stroke="black" points="1629.85,-122 1470.15,-122 1470.15,-86 1629.85,-86 1629.85,-122"/>
<text text-anchor="middle" x="1550" y="-99.8" font-family="Times,serif" font-size="14.00">OrdenTrabajoComponent</text>
</g>
<!-- OrdenTrabajoComponent&#45;&gt;AppModule -->
<g id="edge13" class="edge">
<title>OrdenTrabajoComponent&#45;&gt;AppModule</title>
<path fill="none" stroke="black" d="M1550,-122.05C1550,-136.37 1550,-154 1550,-154 1550,-154 1700.15,-154 1700.15,-154"/>
<polygon fill="black" stroke="black" points="1700.15,-157.5 1710.15,-154 1700.15,-150.5 1700.15,-157.5"/>
</g>
<!-- PanelComponent -->
<g id="node14" class="node">
<title>PanelComponent</title>
<polygon fill="#ffffb3" stroke="black" points="1452.44,-122 1339.56,-122 1339.56,-86 1452.44,-86 1452.44,-122"/>
<text text-anchor="middle" x="1396" y="-99.8" font-family="Times,serif" font-size="14.00">PanelComponent</text>
</g>
<!-- PanelComponent&#45;&gt;AppModule -->
<g id="edge14" class="edge">
<title>PanelComponent&#45;&gt;AppModule</title>
<path fill="none" stroke="black" d="M1396,-122.24C1396,-137.57 1396,-157 1396,-157 1396,-157 1700.12,-157 1700.12,-157"/>
<polygon fill="black" stroke="black" points="1700.12,-160.5 1710.12,-157 1700.12,-153.5 1700.12,-160.5"/>
</g>
<!-- RegisterComponent -->
<g id="node15" class="node">
<title>RegisterComponent</title>
<polygon fill="#ffffb3" stroke="black" points="1321.98,-122 1194.02,-122 1194.02,-86 1321.98,-86 1321.98,-122"/>
<text text-anchor="middle" x="1258" y="-99.8" font-family="Times,serif" font-size="14.00">RegisterComponent</text>
</g>
<!-- RegisterComponent&#45;&gt;AppModule -->
<g id="edge15" class="edge">
<title>RegisterComponent&#45;&gt;AppModule</title>
<path fill="none" stroke="black" d="M1258,-122.03C1258,-138.4 1258,-160 1258,-160 1258,-160 1700.31,-160 1700.31,-160"/>
<polygon fill="black" stroke="black" points="1700.31,-163.5 1710.31,-160 1700.31,-156.5 1700.31,-163.5"/>
</g>
<!-- ReporteComponent -->
<g id="node16" class="node">
<title>ReporteComponent</title>
<polygon fill="#ffffb3" stroke="black" points="1175.65,-122 1050.35,-122 1050.35,-86 1175.65,-86 1175.65,-122"/>
<text text-anchor="middle" x="1113" y="-99.8" font-family="Times,serif" font-size="14.00">ReporteComponent</text>
</g>
<!-- ReporteComponent&#45;&gt;AppModule -->
<g id="edge16" class="edge">
<title>ReporteComponent&#45;&gt;AppModule</title>
<path fill="none" stroke="black" d="M1113,-122.02C1113,-139.37 1113,-163 1113,-163 1113,-163 1700.07,-163 1700.07,-163"/>
<polygon fill="black" stroke="black" points="1700.07,-166.5 1710.07,-163 1700.07,-159.5 1700.07,-166.5"/>
</g>
<!-- TutorialComponent -->
<g id="node17" class="node">
<title>TutorialComponent</title>
<polygon fill="#ffffb3" stroke="black" points="1032.43,-122 905.57,-122 905.57,-86 1032.43,-86 1032.43,-122"/>
<text text-anchor="middle" x="969" y="-99.8" font-family="Times,serif" font-size="14.00">TutorialComponent</text>
</g>
<!-- TutorialComponent&#45;&gt;AppModule -->
<g id="edge17" class="edge">
<title>TutorialComponent&#45;&gt;AppModule</title>
<path fill="none" stroke="black" d="M969,-122.27C969,-140.56 969,-166 969,-166 969,-166 1700.18,-166 1700.18,-166"/>
<polygon fill="black" stroke="black" points="1700.18,-169.5 1710.18,-166 1700.18,-162.5 1700.18,-169.5"/>
</g>
<!-- UserOtComponent -->
<g id="node18" class="node">
<title>UserOtComponent</title>
<polygon fill="#ffffb3" stroke="black" points="887.76,-122 766.24,-122 766.24,-86 887.76,-86 887.76,-122"/>
<text text-anchor="middle" x="827" y="-99.8" font-family="Times,serif" font-size="14.00">UserOtComponent</text>
</g>
<!-- UserOtComponent&#45;&gt;AppModule -->
<g id="edge18" class="edge">
<title>UserOtComponent&#45;&gt;AppModule</title>
<path fill="none" stroke="black" d="M827,-122.11C827,-141.34 827,-169 827,-169 827,-169 1700.15,-169 1700.15,-169"/>
<polygon fill="black" stroke="black" points="1700.15,-172.5 1710.15,-169 1700.15,-165.5 1700.15,-172.5"/>
</g>
<!-- UserPanelTutorial -->
<g id="node19" class="node">
<title>UserPanelTutorial</title>
<polygon fill="#ffffb3" stroke="black" points="748.13,-122 629.87,-122 629.87,-86 748.13,-86 748.13,-122"/>
<text text-anchor="middle" x="689" y="-99.8" font-family="Times,serif" font-size="14.00">UserPanelTutorial</text>
</g>
<!-- UserPanelTutorial&#45;&gt;AppModule -->
<g id="edge19" class="edge">
<title>UserPanelTutorial&#45;&gt;AppModule</title>
<path fill="none" stroke="black" d="M689,-122.22C689,-142.37 689,-172 689,-172 689,-172 1700.33,-172 1700.33,-172"/>
<polygon fill="black" stroke="black" points="1700.33,-175.5 1710.33,-172 1700.33,-168.5 1700.33,-175.5"/>
</g>
<!-- UserTAComponent -->
<g id="node20" class="node">
<title>UserTAComponent</title>
<polygon fill="#ffffb3" stroke="black" points="611.42,-122 484.58,-122 484.58,-86 611.42,-86 611.42,-122"/>
<text text-anchor="middle" x="548" y="-99.8" font-family="Times,serif" font-size="14.00">UserTAComponent</text>
</g>
<!-- UserTAComponent&#45;&gt;AppModule -->
<g id="edge20" class="edge">
<title>UserTAComponent&#45;&gt;AppModule</title>
<path fill="none" stroke="black" d="M548,-122.28C548,-143.32 548,-175 548,-175 548,-175 1700.21,-175 1700.21,-175"/>
<polygon fill="black" stroke="black" points="1700.21,-178.5 1710.21,-175 1700.21,-171.5 1700.21,-178.5"/>
</g>
<!-- UserTTComponent -->
<g id="node21" class="node">
<title>UserTTComponent</title>
<polygon fill="#ffffb3" stroke="black" points="466.36,-122 341.64,-122 341.64,-86 466.36,-86 466.36,-122"/>
<text text-anchor="middle" x="404" y="-99.8" font-family="Times,serif" font-size="14.00">UserTTComponent</text>
</g>
<!-- UserTTComponent&#45;&gt;AppModule -->
<g id="edge21" class="edge">
<title>UserTTComponent&#45;&gt;AppModule</title>
<path fill="none" stroke="black" d="M404,-122.29C404,-144.21 404,-178 404,-178 404,-178 1700.18,-178 1700.18,-178"/>
<polygon fill="black" stroke="black" points="1700.18,-181.5 1710.18,-178 1700.18,-174.5 1700.18,-181.5"/>
</g>
<!-- AppComponent  -->
<g id="node24" class="node">
<title>AppComponent </title>
<polygon fill="#80b1d3" stroke="black" points="1806.44,-252 1697.56,-252 1697.56,-216 1806.44,-216 1806.44,-252"/>
<text text-anchor="middle" x="1752" y="-229.8" font-family="Times,serif" font-size="14.00">AppComponent </text>
</g>
<!-- AppModule&#45;&gt;AppComponent  -->
<g id="edge23" class="edge">
<title>AppModule&#45;&gt;AppComponent </title>
<path fill="none" stroke="black" stroke-dasharray="1,5" d="M1752,-187.11C1752,-187.11 1752,-205.99 1752,-205.99"/>
<polygon fill="black" stroke="black" points="1748.5,-205.99 1752,-215.99 1755.5,-205.99 1748.5,-205.99"/>
</g>
<!-- AppRoutingModule -->
<g id="node23" class="node">
<title>AppRoutingModule</title>
<polygon fill="#8dd3c7" stroke="black" points="318.27,-122 315.27,-126 294.27,-126 291.27,-122 189.73,-122 189.73,-86 318.27,-86 318.27,-122"/>
<text text-anchor="middle" x="254" y="-99.8" font-family="Times,serif" font-size="14.00">AppRoutingModule</text>
</g>
<!-- AppRoutingModule&#45;&gt;AppModule -->
<g id="edge22" class="edge">
<title>AppRoutingModule&#45;&gt;AppModule</title>
<path fill="none" stroke="black" d="M254,-122.25C254,-145.02 254,-181 254,-181 254,-181 1699.98,-181 1699.98,-181"/>
<polygon fill="black" stroke="black" points="1699.98,-184.5 1709.98,-181 1699.98,-177.5 1699.98,-184.5"/>
</g>
<!-- EdificioService -->
<g id="node25" class="node">
<title>EdificioService</title>
<ellipse fill="#fdb462" stroke="black" cx="95" cy="-104" rx="71.2" ry="18"/>
<text text-anchor="middle" x="95" y="-99.8" font-family="Times,serif" font-size="14.00">EdificioService</text>
</g>
<!-- EdificioService&#45;&gt;AppModule -->
<g id="edge24" class="edge">
<title>EdificioService&#45;&gt;AppModule</title>
<path fill="none" stroke="black" d="M95,-122.15C95,-145.76 95,-184 95,-184 95,-184 1700.21,-184 1700.21,-184"/>
<polygon fill="black" stroke="black" points="1700.21,-187.5 1710.21,-184 1700.21,-180.5 1700.21,-187.5"/>
</g>
</g>
</svg>
