<?xml version="1.0" encoding="UTF-8" standalone="no"?>
<!DOCTYPE svg PUBLIC "-//W3C//DTD SVG 1.1//EN"
 "http://www.w3.org/Graphics/SVG/1.1/DTD/svg11.dtd">
<!-- Generated by graphviz version 2.47.0 (20210316.0004)
 -->
<!-- Title: dependencies Pages: 1 -->
<svg width="3644pt" height="284pt"
 viewBox="0.00 0.00 3644.00 284.00" xmlns="http://www.w3.org/2000/svg" xmlns:xlink="http://www.w3.org/1999/xlink">
<g id="graph0" class="graph" transform="scale(1 1) rotate(0) translate(4 280)">
<title>dependencies</title>
<polygon fill="white" stroke="transparent" points="-4,4 -4,-280 3640,-280 3640,4 -4,4"/>
<text text-anchor="start" x="1797.01" y="-42.4" font-family="Times-12" font-weight="bold" font-size="14.00">Legend</text>
<polygon fill="#ffffb3" stroke="transparent" points="1584,-10 1584,-30 1604,-30 1604,-10 1584,-10"/>
<text text-anchor="start" x="1607.63" y="-15.4" font-family="Times-12" font-size="14.00"> &#160;Declarations</text>
<polygon fill="#8dd3c7" stroke="transparent" points="1697,-10 1697,-30 1717,-30 1717,-10 1697,-10"/>
<text text-anchor="start" x="1720.73" y="-15.4" font-family="Times-12" font-size="14.00"> &#160;Module</text>
<polygon fill="#80b1d3" stroke="transparent" points="1783,-10 1783,-30 1803,-30 1803,-10 1783,-10"/>
<text text-anchor="start" x="1806.78" y="-15.4" font-family="Times-12" font-size="14.00"> &#160;Bootstrap</text>
<polygon fill="#fdb462" stroke="transparent" points="1880,-10 1880,-30 1900,-30 1900,-10 1880,-10"/>
<text text-anchor="start" x="1903.67" y="-15.4" font-family="Times-12" font-size="14.00"> &#160;Providers</text>
<polygon fill="#fb8072" stroke="transparent" points="1976,-10 1976,-30 1996,-30 1996,-10 1976,-10"/>
<text text-anchor="start" x="1999.73" y="-15.4" font-family="Times-12" font-size="14.00"> &#160;Exports</text>
<g id="clust1" class="cluster">
<title>cluster_AppModule</title>
<polygon fill="none" stroke="black" stroke-dasharray="1,5" points="8,-70 8,-268 3628,-268 3628,-70 8,-70"/>
</g>
<g id="clust27" class="cluster">
<title>cluster_AppModule_providers</title>
<polygon fill="none" stroke="black" points="3462,-78 3462,-130 3620,-130 3620,-78 3462,-78"/>
</g>
<g id="clust2" class="cluster">
<title>cluster_AppModule_declarations</title>
<polygon fill="none" stroke="black" points="168,-78 168,-130 3454,-130 3454,-78 168,-78"/>
</g>
<g id="clust24" class="cluster">
<title>cluster_AppModule_imports</title>
<polygon fill="none" stroke="black" points="16,-78 16,-130 160,-130 160,-78 16,-78"/>
</g>
<g id="clust26" class="cluster">
<title>cluster_AppModule_bootstrap</title>
<polygon fill="none" stroke="black" points="1743,-208 1743,-260 1867,-260 1867,-208 1743,-208"/>
</g>
<!-- ActivosFromComponent -->
<g id="node1" class="node">
<title>ActivosFromComponent</title>
<polygon fill="#ffffb3" stroke="black" points="3445.71,-122 3290.29,-122 3290.29,-86 3445.71,-86 3445.71,-122"/>
<text text-anchor="middle" x="3368" y="-99.8" font-family="Times,serif" font-size="14.00">ActivosFromComponent</text>
</g>
<!-- AppModule -->
<g id="node22" class="node">
<title>AppModule</title>
<polygon fill="#8dd3c7" stroke="black" points="1846.66,-187 1843.66,-191 1822.66,-191 1819.66,-187 1763.34,-187 1763.34,-151 1846.66,-151 1846.66,-187"/>
<text text-anchor="middle" x="1805" y="-164.8" font-family="Times,serif" font-size="14.00">AppModule</text>
</g>
<!-- ActivosFromComponent&#45;&gt;AppModule -->
<g id="edge1" class="edge">
<title>ActivosFromComponent&#45;&gt;AppModule</title>
<path fill="none" stroke="black" d="M3368,-122.25C3368,-145.02 3368,-181 3368,-181 3368,-181 1856.81,-181 1856.81,-181"/>
<polygon fill="black" stroke="black" points="1856.81,-177.5 1846.81,-181 1856.81,-184.5 1856.81,-177.5"/>
</g>
<!-- AppComponent -->
<g id="node2" class="node">
<title>AppComponent</title>
<polygon fill="#ffffb3" stroke="black" points="3272.94,-122 3167.06,-122 3167.06,-86 3272.94,-86 3272.94,-122"/>
<text text-anchor="middle" x="3220" y="-99.8" font-family="Times,serif" font-size="14.00">AppComponent</text>
</g>
<!-- AppComponent&#45;&gt;AppModule -->
<g id="edge2" class="edge">
<title>AppComponent&#45;&gt;AppModule</title>
<path fill="none" stroke="black" d="M3220,-122.29C3220,-144.21 3220,-178 3220,-178 3220,-178 1856.96,-178 1856.96,-178"/>
<polygon fill="black" stroke="black" points="1856.96,-174.5 1846.96,-178 1856.96,-181.5 1856.96,-174.5"/>
</g>
<!-- BodyComponent -->
<g id="node3" class="node">
<title>BodyComponent</title>
<polygon fill="#ffffb3" stroke="black" points="3148.67,-122 3037.33,-122 3037.33,-86 3148.67,-86 3148.67,-122"/>
<text text-anchor="middle" x="3093" y="-99.8" font-family="Times,serif" font-size="14.00">BodyComponent</text>
</g>
<!-- BodyComponent&#45;&gt;AppModule -->
<g id="edge3" class="edge">
<title>BodyComponent&#45;&gt;AppModule</title>
<path fill="none" stroke="black" d="M3093,-122.28C3093,-143.32 3093,-175 3093,-175 3093,-175 1856.76,-175 1856.76,-175"/>
<polygon fill="black" stroke="black" points="1856.76,-171.5 1846.76,-175 1856.76,-178.5 1856.76,-171.5"/>
</g>
<!-- BorrarOrdenDialogComponent -->
<g id="node4" class="node">
<title>BorrarOrdenDialogComponent</title>
<polygon fill="#ffffb3" stroke="black" points="3019.45,-122 2828.55,-122 2828.55,-86 3019.45,-86 3019.45,-122"/>
<text text-anchor="middle" x="2924" y="-99.8" font-family="Times,serif" font-size="14.00">BorrarOrdenDialogComponent</text>
</g>
<!-- BorrarOrdenDialogComponent&#45;&gt;AppModule -->
<g id="edge4" class="edge">
<title>BorrarOrdenDialogComponent&#45;&gt;AppModule</title>
<path fill="none" stroke="black" d="M2924,-122.22C2924,-142.37 2924,-172 2924,-172 2924,-172 1856.82,-172 1856.82,-172"/>
<polygon fill="black" stroke="black" points="1856.82,-168.5 1846.82,-172 1856.82,-175.5 1856.82,-168.5"/>
</g>
<!-- CameraComponent -->
<g id="node5" class="node">
<title>CameraComponent</title>
<polygon fill="#ffffb3" stroke="black" points="2810.36,-122 2685.64,-122 2685.64,-86 2810.36,-86 2810.36,-122"/>
<text text-anchor="middle" x="2748" y="-99.8" font-family="Times,serif" font-size="14.00">CameraComponent</text>
</g>
<!-- CameraComponent&#45;&gt;AppModule -->
<g id="edge5" class="edge">
<title>CameraComponent&#45;&gt;AppModule</title>
<path fill="none" stroke="black" d="M2748,-122.11C2748,-141.34 2748,-169 2748,-169 2748,-169 1856.74,-169 1856.74,-169"/>
<polygon fill="black" stroke="black" points="1856.74,-165.5 1846.74,-169 1856.74,-172.5 1856.74,-165.5"/>
</g>
<!-- EdificioFormComponent -->
<g id="node6" class="node">
<title>EdificioFormComponent</title>
<polygon fill="#ffffb3" stroke="black" points="2667.27,-122 2510.73,-122 2510.73,-86 2667.27,-86 2667.27,-122"/>
<text text-anchor="middle" x="2589" y="-99.8" font-family="Times,serif" font-size="14.00">EdificioFormComponent</text>
</g>
<!-- EdificioFormComponent&#45;&gt;AppModule -->
<g id="edge6" class="edge">
<title>EdificioFormComponent&#45;&gt;AppModule</title>
<path fill="none" stroke="black" d="M2589,-122.27C2589,-140.56 2589,-166 2589,-166 2589,-166 1856.87,-166 1856.87,-166"/>
<polygon fill="black" stroke="black" points="1856.87,-162.5 1846.87,-166 1856.87,-169.5 1856.87,-162.5"/>
</g>
<!-- Err404Component -->
<g id="node7" class="node">
<title>Err404Component</title>
<polygon fill="#ffffb3" stroke="black" points="2493.21,-122 2372.79,-122 2372.79,-86 2493.21,-86 2493.21,-122"/>
<text text-anchor="middle" x="2433" y="-99.8" font-family="Times,serif" font-size="14.00">Err404Component</text>
</g>
<!-- Err404Component&#45;&gt;AppModule -->
<g id="edge7" class="edge">
<title>Err404Component&#45;&gt;AppModule</title>
<path fill="none" stroke="black" d="M2433,-122.02C2433,-139.37 2433,-163 2433,-163 2433,-163 1856.69,-163 1856.69,-163"/>
<polygon fill="black" stroke="black" points="1856.69,-159.5 1846.69,-163 1856.69,-166.5 1856.69,-159.5"/>
</g>
<!-- FooterComponent -->
<g id="node8" class="node">
<title>FooterComponent</title>
<polygon fill="#ffffb3" stroke="black" points="2354.88,-122 2237.12,-122 2237.12,-86 2354.88,-86 2354.88,-122"/>
<text text-anchor="middle" x="2296" y="-99.8" font-family="Times,serif" font-size="14.00">FooterComponent</text>
</g>
<!-- FooterComponent&#45;&gt;AppModule -->
<g id="edge8" class="edge">
<title>FooterComponent&#45;&gt;AppModule</title>
<path fill="none" stroke="black" d="M2296,-122.03C2296,-138.4 2296,-160 2296,-160 2296,-160 1856.86,-160 1856.86,-160"/>
<polygon fill="black" stroke="black" points="1856.86,-156.5 1846.86,-160 1856.86,-163.5 1856.86,-156.5"/>
</g>
<!-- HeaderComponent -->
<g id="node9" class="node">
<title>HeaderComponent</title>
<polygon fill="#ffffb3" stroke="black" points="2218.74,-122 2097.26,-122 2097.26,-86 2218.74,-86 2218.74,-122"/>
<text text-anchor="middle" x="2158" y="-99.8" font-family="Times,serif" font-size="14.00">HeaderComponent</text>
</g>
<!-- HeaderComponent&#45;&gt;AppModule -->
<g id="edge9" class="edge">
<title>HeaderComponent&#45;&gt;AppModule</title>
<path fill="none" stroke="black" d="M2158,-122.24C2158,-137.57 2158,-157 2158,-157 2158,-157 1856.88,-157 1856.88,-157"/>
<polygon fill="black" stroke="black" points="1856.88,-153.5 1846.88,-157 1856.88,-160.5 1856.88,-153.5"/>
</g>
<!-- LandingBodyComponent -->
<g id="node10" class="node">
<title>LandingBodyComponent</title>
<polygon fill="#ffffb3" stroke="black" points="2079.33,-122 1920.67,-122 1920.67,-86 2079.33,-86 2079.33,-122"/>
<text text-anchor="middle" x="2000" y="-99.8" font-family="Times,serif" font-size="14.00">LandingBodyComponent</text>
</g>
<!-- LandingBodyComponent&#45;&gt;AppModule -->
<g id="edge10" class="edge">
<title>LandingBodyComponent&#45;&gt;AppModule</title>
<path fill="none" stroke="black" d="M2000,-122.05C2000,-136.37 2000,-154 2000,-154 2000,-154 1856.83,-154 1856.83,-154"/>
<polygon fill="black" stroke="black" points="1856.83,-150.5 1846.83,-154 1856.83,-157.5 1856.83,-150.5"/>
</g>
<!-- OrdenDetalleDialogComponent -->
<g id="node11" class="node">
<title>OrdenDetalleDialogComponent</title>
<polygon fill="#ffffb3" stroke="black" points="1902.34,-122 1707.66,-122 1707.66,-86 1902.34,-86 1902.34,-122"/>
<text text-anchor="middle" x="1805" y="-99.8" font-family="Times,serif" font-size="14.00">OrdenDetalleDialogComponent</text>
</g>
<!-- OrdenDetalleDialogComponent&#45;&gt;AppModule -->
<g id="edge11" class="edge">
<title>OrdenDetalleDialogComponent&#45;&gt;AppModule</title>
<path fill="none" stroke="black" d="M1805,-122.11C1805,-122.11 1805,-140.99 1805,-140.99"/>
<polygon fill="black" stroke="black" points="1801.5,-140.99 1805,-150.99 1808.5,-140.99 1801.5,-140.99"/>
</g>
<!-- OrdenGeneradaDialogComponent -->
<g id="node12" class="node">
<title>OrdenGeneradaDialogComponent</title>
<polygon fill="#ffffb3" stroke="black" points="1690.04,-122 1481.96,-122 1481.96,-86 1690.04,-86 1690.04,-122"/>
<text text-anchor="middle" x="1586" y="-99.8" font-family="Times,serif" font-size="14.00">OrdenGeneradaDialogComponent</text>
</g>
<!-- OrdenGeneradaDialogComponent&#45;&gt;AppModule -->
<g id="edge12" class="edge">
<title>OrdenGeneradaDialogComponent&#45;&gt;AppModule</title>
<path fill="none" stroke="black" d="M1586,-122.05C1586,-136.37 1586,-154 1586,-154 1586,-154 1753.29,-154 1753.29,-154"/>
<polygon fill="black" stroke="black" points="1753.29,-157.5 1763.29,-154 1753.29,-150.5 1753.29,-157.5"/>
</g>
<!-- OrdenTrabajoComponent -->
<g id="node13" class="node">
<title>OrdenTrabajoComponent</title>
<polygon fill="#ffffb3" stroke="black" points="1463.85,-122 1304.15,-122 1304.15,-86 1463.85,-86 1463.85,-122"/>
<text text-anchor="middle" x="1384" y="-99.8" font-family="Times,serif" font-size="14.00">OrdenTrabajoComponent</text>
</g>
<!-- OrdenTrabajoComponent&#45;&gt;AppModule -->
<g id="edge13" class="edge">
<title>OrdenTrabajoComponent&#45;&gt;AppModule</title>
<path fill="none" stroke="black" d="M1384,-122.24C1384,-137.57 1384,-157 1384,-157 1384,-157 1753.09,-157 1753.09,-157"/>
<polygon fill="black" stroke="black" points="1753.09,-160.5 1763.09,-157 1753.09,-153.5 1753.09,-160.5"/>
</g>
<!-- PanelComponent -->
<g id="node14" class="node">
<title>PanelComponent</title>
<polygon fill="#ffffb3" stroke="black" points="1286.44,-122 1173.56,-122 1173.56,-86 1286.44,-86 1286.44,-122"/>
<text text-anchor="middle" x="1230" y="-99.8" font-family="Times,serif" font-size="14.00">PanelComponent</text>
</g>
<!-- PanelComponent&#45;&gt;AppModule -->
<g id="edge14" class="edge">
<title>PanelComponent&#45;&gt;AppModule</title>
<path fill="none" stroke="black" d="M1230,-122.03C1230,-138.4 1230,-160 1230,-160 1230,-160 1753.18,-160 1753.18,-160"/>
<polygon fill="black" stroke="black" points="1753.18,-163.5 1763.18,-160 1753.18,-156.5 1753.18,-163.5"/>
</g>
<!-- RegisterComponent -->
<g id="node15" class="node">
<title>RegisterComponent</title>
<polygon fill="#ffffb3" stroke="black" points="1155.98,-122 1028.02,-122 1028.02,-86 1155.98,-86 1155.98,-122"/>
<text text-anchor="middle" x="1092" y="-99.8" font-family="Times,serif" font-size="14.00">RegisterComponent</text>
</g>
<!-- RegisterComponent&#45;&gt;AppModule -->
<g id="edge15" class="edge">
<title>RegisterComponent&#45;&gt;AppModule</title>
<path fill="none" stroke="black" d="M1092,-122.02C1092,-139.37 1092,-163 1092,-163 1092,-163 1753.32,-163 1753.32,-163"/>
<polygon fill="black" stroke="black" points="1753.32,-166.5 1763.32,-163 1753.32,-159.5 1753.32,-166.5"/>
</g>
<!-- ReporteComponent -->
<g id="node16" class="node">
<title>ReporteComponent</title>
<polygon fill="#ffffb3" stroke="black" points="1009.65,-122 884.35,-122 884.35,-86 1009.65,-86 1009.65,-122"/>
<text text-anchor="middle" x="947" y="-99.8" font-family="Times,serif" font-size="14.00">ReporteComponent</text>
</g>
<!-- ReporteComponent&#45;&gt;AppModule -->
<g id="edge16" class="edge">
<title>ReporteComponent&#45;&gt;AppModule</title>
<path fill="none" stroke="black" d="M947,-122.27C947,-140.56 947,-166 947,-166 947,-166 1753.33,-166 1753.33,-166"/>
<polygon fill="black" stroke="black" points="1753.33,-169.5 1763.33,-166 1753.33,-162.5 1753.33,-169.5"/>
</g>
<!-- TutorialComponent -->
<g id="node17" class="node">
<title>TutorialComponent</title>
<polygon fill="#ffffb3" stroke="black" points="866.43,-122 739.57,-122 739.57,-86 866.43,-86 866.43,-122"/>
<text text-anchor="middle" x="803" y="-99.8" font-family="Times,serif" font-size="14.00">TutorialComponent</text>
</g>
<!-- TutorialComponent&#45;&gt;AppModule -->
<g id="edge17" class="edge">
<title>TutorialComponent&#45;&gt;AppModule</title>
<path fill="none" stroke="black" d="M803,-122.11C803,-141.34 803,-169 803,-169 803,-169 1753.22,-169 1753.22,-169"/>
<polygon fill="black" stroke="black" points="1753.22,-172.5 1763.22,-169 1753.22,-165.5 1753.22,-172.5"/>
</g>
<!-- UserOtComponent -->
<g id="node18" class="node">
<title>UserOtComponent</title>
<polygon fill="#ffffb3" stroke="black" points="721.76,-122 600.24,-122 600.24,-86 721.76,-86 721.76,-122"/>
<text text-anchor="middle" x="661" y="-99.8" font-family="Times,serif" font-size="14.00">UserOtComponent</text>
</g>
<!-- UserOtComponent&#45;&gt;AppModule -->
<g id="edge18" class="edge">
<title>UserOtComponent&#45;&gt;AppModule</title>
<path fill="none" stroke="black" d="M661,-122.22C661,-142.37 661,-172 661,-172 661,-172 1753.27,-172 1753.27,-172"/>
<polygon fill="black" stroke="black" points="1753.27,-175.5 1763.27,-172 1753.27,-168.5 1753.27,-175.5"/>
</g>
<!-- UserPanelTutorial -->
<g id="node19" class="node">
<title>UserPanelTutorial</title>
<polygon fill="#ffffb3" stroke="black" points="582.13,-122 463.87,-122 463.87,-86 582.13,-86 582.13,-122"/>
<text text-anchor="middle" x="523" y="-99.8" font-family="Times,serif" font-size="14.00">UserPanelTutorial</text>
</g>
<!-- UserPanelTutorial&#45;&gt;AppModule -->
<g id="edge19" class="edge">
<title>UserPanelTutorial&#45;&gt;AppModule</title>
<path fill="none" stroke="black" d="M523,-122.28C523,-143.32 523,-175 523,-175 523,-175 1753.07,-175 1753.07,-175"/>
<polygon fill="black" stroke="black" points="1753.07,-178.5 1763.07,-175 1753.07,-171.5 1753.07,-178.5"/>
</g>
<!-- UserTAComponent -->
<g id="node20" class="node">
<title>UserTAComponent</title>
<polygon fill="#ffffb3" stroke="black" points="445.42,-122 318.58,-122 318.58,-86 445.42,-86 445.42,-122"/>
<text text-anchor="middle" x="382" y="-99.8" font-family="Times,serif" font-size="14.00">UserTAComponent</text>
</g>
<!-- UserTAComponent&#45;&gt;AppModule -->
<g id="edge20" class="edge">
<title>UserTAComponent&#45;&gt;AppModule</title>
<path fill="none" stroke="black" d="M382,-122.29C382,-144.21 382,-178 382,-178 382,-178 1753.18,-178 1753.18,-178"/>
<polygon fill="black" stroke="black" points="1753.18,-181.5 1763.18,-178 1753.18,-174.5 1753.18,-181.5"/>
</g>
<!-- UserTTComponent -->
<g id="node21" class="node">
<title>UserTTComponent</title>
<polygon fill="#ffffb3" stroke="black" points="300.36,-122 175.64,-122 175.64,-86 300.36,-86 300.36,-122"/>
<text text-anchor="middle" x="238" y="-99.8" font-family="Times,serif" font-size="14.00">UserTTComponent</text>
</g>
<!-- UserTTComponent&#45;&gt;AppModule -->
<g id="edge21" class="edge">
<title>UserTTComponent&#45;&gt;AppModule</title>
<path fill="none" stroke="black" d="M238,-122.25C238,-145.02 238,-181 238,-181 238,-181 1753.09,-181 1753.09,-181"/>
<polygon fill="black" stroke="black" points="1753.09,-184.5 1763.09,-181 1753.09,-177.5 1753.09,-184.5"/>
</g>
<!-- AppComponent  -->
<g id="node24" class="node">
<title>AppComponent </title>
<polygon fill="#80b1d3" stroke="black" points="1859.44,-252 1750.56,-252 1750.56,-216 1859.44,-216 1859.44,-252"/>
<text text-anchor="middle" x="1805" y="-229.8" font-family="Times,serif" font-size="14.00">AppComponent </text>
</g>
<!-- AppModule&#45;&gt;AppComponent  -->
<g id="edge23" class="edge">
<title>AppModule&#45;&gt;AppComponent </title>
<path fill="none" stroke="black" stroke-dasharray="1,5" d="M1805,-187.11C1805,-187.11 1805,-205.99 1805,-205.99"/>
<polygon fill="black" stroke="black" points="1801.5,-205.99 1805,-215.99 1808.5,-205.99 1801.5,-205.99"/>
</g>
<!-- AppRoutingModule -->
<g id="node23" class="node">
<title>AppRoutingModule</title>
<polygon fill="#8dd3c7" stroke="black" points="152.27,-122 149.27,-126 128.27,-126 125.27,-122 23.73,-122 23.73,-86 152.27,-86 152.27,-122"/>
<text text-anchor="middle" x="88" y="-99.8" font-family="Times,serif" font-size="14.00">AppRoutingModule</text>
</g>
<!-- AppRoutingModule&#45;&gt;AppModule -->
<g id="edge22" class="edge">
<title>AppRoutingModule&#45;&gt;AppModule</title>
<path fill="none" stroke="black" d="M88,-122.15C88,-145.76 88,-184 88,-184 88,-184 1752.98,-184 1752.98,-184"/>
<polygon fill="black" stroke="black" points="1752.98,-187.5 1762.98,-184 1752.98,-180.5 1752.98,-187.5"/>
</g>
<!-- EdificioService -->
<g id="node25" class="node">
<title>EdificioService</title>
<ellipse fill="#fdb462" stroke="black" cx="3541" cy="-104" rx="71.2" ry="18"/>
<text text-anchor="middle" x="3541" y="-99.8" font-family="Times,serif" font-size="14.00">EdificioService</text>
</g>
<!-- EdificioService&#45;&gt;AppModule -->
<g id="edge24" class="edge">
<title>EdificioService&#45;&gt;AppModule</title>
<path fill="none" stroke="black" d="M3541,-122.15C3541,-145.76 3541,-184 3541,-184 3541,-184 1857.05,-184 1857.05,-184"/>
<polygon fill="black" stroke="black" points="1857.05,-180.5 1847.05,-184 1857.05,-187.5 1857.05,-180.5"/>
</g>
</g>
</svg>
